<svg xmlns="http://www.w3.org/2000/svg" width="148" height="130" viewBox="0 0 148 130">
    <g fill="#3A3D65" fill-rule="nonzero">
        <path d="M22.07 104H.93c-.531 0-.93.406-.93.948v24.104c0 .542.399.948.93.948h21.14c.531 0 .93-.406.93-.948v-24.104c0-.542-.399-.948-.93-.948zm-.931 23.969H1.86v-22.073H21.14v22.073zM53.07 93H31.93c-.531 0-.93.408-.93.952v35.096c0 .544.399.952.93.952h21.14c.531 0 .93-.408.93-.952V93.952c0-.544-.399-.952-.93-.952zm-.931 35.096H32.86V94.904H52.14v33.192zM85.05 88H63.93a.911.911 0 0 0-.93.936v40.128c0 .535.398.936.93.936h21.12c.53 0 .93-.401.93-.936V88.936c.132-.535-.4-.936-.93-.936zm-.93 40.127H64.86v-38.12h19.26v38.12zM117 129.054V68.946c0-.54-.397-.946-.925-.946h-21.15c-.528 0-.925.405-.925.946v60.108c0 .54.397.946.925.946h21.018c.528 0 1.057-.405 1.057-.946zm-1.983-1.08H95.851V69.89h19.166v58.083zM147.05 55h-21.12c-.532 0-.93.405-.93.944v73.112c0 .54.398.944.93.944h21.12c.53 0 .93-.405.93-.944V55.944c.132-.54-.4-.944-.93-.944zm-.93 73.112h-19.26V57.023h19.26v71.089zM93.397 45.783l14.87 14.913c.135.135.403.269.67.269.269 0 .537-.134.67-.269l33.092-33.05c.401-.403.401-1.075 0-1.344-.402-.403-1.072-.403-1.34 0l-8.44 8.464c-1.072-2.15-3.082-3.627-5.36-4.164-2.277-.538-4.822-.135-6.698 1.209-2.68 2.015-7.1 2.015-9.78 0-1.875-1.344-4.287-1.881-6.698-1.21-2.412.672-4.555 2.284-5.627 4.568-.67 1.344-2.144 6.852-1.34 11.823l-2.947-2.955c.134-.27.134-.538.268-.806.402-2.687-1.742-5.24-1.876-5.375-3.885-3.761-9.78-4.299-13.933-1.209-1.875 1.344-4.287 2.15-6.832 2.15-2.546 0-4.957-.806-6.833-2.15-2.545-1.88-5.627-2.418-8.708-1.612-3.215.806-6.029 2.956-7.368 6.046-.67 1.343-1.072 2.821-1.34 4.3-3.082-1.747-6.833-1.613-9.646.537-1.474 1.074-3.483 1.746-5.493 1.746-2.01 0-4.02-.672-5.493-1.746-2.01-1.478-4.689-2.016-7.368-1.344-2.68.672-4.957 2.553-6.163 4.971-1.206 2.418-2.01 5.105-2.411 7.927-1.742 12.36 5.358 23.511 7.234 26.198l-6.699 6.718c-.401.403-.401.94 0 1.343.134.135.402.269.67.269s.536-.134.67-.269l26.794-26.333 9.646 9.674.134.134 6.565 6.583c.134.135.402.269.67.269s.536-.134.67-.269l34.698-34.931c.402-.537.804-.806 1.072-1.075zm7.1-9.807c.804-1.747 2.412-2.956 4.288-3.494 1.741-.403 3.617-.134 4.957.94 1.607 1.21 3.75 1.882 6.028 1.882 2.278 0 4.421-.672 6.029-1.881 1.474-1.075 3.215-1.344 4.957-.94 1.876.537 3.483 1.746 4.287 3.493 0 .134.134.134.134.134l-22.105 22.437-8.708-8.733c-2.412-4.971-.536-12.36.134-13.838zm-87.349 21.63c.402-2.687 1.072-5.105 2.278-7.39.938-2.014 2.68-3.358 4.823-3.895 2.01-.538 4.019-.135 5.626 1.074a11.39 11.39 0 0 0 6.7 2.15c2.41 0 4.822-.806 6.698-2.15 2.411-1.746 5.626-1.612 8.172.135-.134 1.075-.134 2.284-.268 3.359-.268 6.045.938 15.047 1.742 20.555l-8.307-8.33-.134-.134-.134-.134h-.268-.401-.134l-.134.134s-.134 0-.134.135L19.847 82.058c-2.01-2.956-8.306-13.3-6.699-24.452zm43.809 21.9l-5.76-5.778c-.805-4.836-2.412-15.853-2.144-22.84 0-1.209.134-2.418.267-3.627v-.134c.268-1.881.67-3.762 1.474-5.374 1.206-2.419 3.483-4.3 6.163-4.971a8.284 8.284 0 0 1 7.1 1.343c2.144 1.612 5.091 2.553 8.039 2.553 2.947 0 5.76-.94 8.038-2.553 3.35-2.418 8.306-2.015 11.387.94 0 0 1.608 2.016 1.34 3.762 0 .27-.134.404-.268.672L56.957 79.505zM71.5 30C79.57 30 86 23.23 86 15S79.434 0 71.5 0C63.43 0 57 6.77 57 15s6.566 15 14.5 15zm0-28.142C78.476 1.858 84.085 7.7 84.085 15c0 7.3-5.609 13.142-12.585 13.142-6.976 0-12.585-5.841-12.585-13.142 0-7.3 5.745-13.142 12.585-13.142zM116 27c6.05 0 11-5.141 11-11.5S122.05 4 116 4s-11 5.141-11 11.5S109.95 27 116 27zm0-21.106c4.95 0 8.938 4.33 8.938 9.47 0 5.142-3.988 9.471-8.938 9.471-4.95 0-8.938-4.33-8.938-9.47 0-5.141 3.988-9.47 8.938-9.47zM32 15c-6.682 0-12 5.585-12 12.5S25.455 40 32 40c6.682 0 12-5.585 12-12.5S38.545 15 32 15zm0 23.005c-5.455 0-9.955-4.654-9.955-10.505 0-5.851 4.5-10.505 9.955-10.505 5.59 0 9.955 4.654 9.955 10.505 0 5.718-4.5 10.505-9.955 10.505z"/>
    </g>
</svg>
