<svg xmlns="http://www.w3.org/2000/svg" width="148" height="120" viewBox="0 0 148 120">
    <g fill="#3A3D65" fill-rule="evenodd">
        <path d="M57.5 68c3.207 0 6.77-1.084 10.216-4.336.356-.362.356-.964.118-1.325-.356-.362-.95-.362-1.306-.12-9.266 8.431-18.65.36-19.006 0-.357-.362-.95-.242-1.307.12-.356.361-.237.963.119 1.325 0 .12 4.87 4.336 11.166 4.336z"/>
        <path fill-rule="nonzero" d="M141.264 67.055c-.242-.24-.484-.362-.725-.362-.242 0-.604.242-.725.483-1.088 1.809-2.055 3.256-3.021 4.824a314.981 314.981 0 0 0-2.659 4.221c-.242.483-.12.965.242 1.206.12.12.362.12.483.12.363 0 .604-.12.725-.482.967-1.568 1.813-2.894 2.659-4.22.604-.966 1.208-1.81 1.812-2.775.605 3.86.121 8.201-1.329 12.664-.846 2.412-1.933 4.944-3.383 7.236a41.546 41.546 0 0 1-8.097 9.769 49.767 49.767 0 0 1-8.096 5.91 47.436 47.436 0 0 1-7.492 3.497c-.484-1.568-.967-3.257-1.571-4.824-3.263-11.216-13.655-17.608-26.706-16.523-2.9.241-5.8.362-8.7.482h-.122c-.846-1.688-3.746-8.321-.12-17.97 4.229-3.859 7.612-9.045 9.788-15.437h.362c3.142 0 5.438-4.703 5.438-10.854 0-4.824-1.45-8.683-3.625-10.251.12-.12.12-.241.12-.241.242-.483.121-.965-.362-1.206-.12 0-.12-.121-.242-.121.363-3.136.846-6.392.967-9.648.967-15.8-3.383-17.126-10.755-19.417-.604-.242-1.208-.362-1.933-.603C69.242.965 63.32.12 57.158 0c-4.35 0-10.755.482-17.039 2.533-.604.24-1.329.361-1.812.603-7.25 2.291-11.722 3.618-10.755 19.417.242 3.256.604 6.512.967 9.648-.121 0-.121 0-.242.12-.483.242-.604.845-.363 1.207 0 0 .121.12.121.24-2.175 1.448-3.625 5.428-3.625 10.252 0 6.15 2.296 10.854 5.438 10.854h.362c2.055 6.151 5.317 11.337 9.426 15.196 3.625 9.528.725 16.523-.12 18.211h-.122c-2.779-.12-5.558-.24-8.338-.482-12.809-1.085-23.201 5.307-26.585 16.523-1.57 4.824-3.02 9.648-4.471 14.593v.602l.12.121.122.12.12.121.121.121H144.285c.483 0 .967-.362.967-.965v-36.18c0-.483-.363-.966-.967-.966h-3.505c1.209-3.859 1.571-7.718 1.209-11.216 1.33 1.689 2.78 3.74 4.35 6.272.242.482.846.603 1.209.24.483-.24.604-.843.241-1.205-2.417-3.86-4.713-6.754-6.525-8.925zM73.955 42.573c0 3.497-2.78 6.271-6.284 6.271s-6.283-2.774-6.283-6.271c0-3.498 2.779-6.271 6.283-6.271 3.384 0 6.284 2.773 6.284 6.27zm-6.284-8.08c-3.988 0-7.25 2.894-7.975 6.633-1.209-.483-2.9-.724-4.592 0-.725-3.74-3.988-6.634-7.976-6.634-3.263 0-6.163 2.05-7.371 4.825-4.23 0-7.492-3.377-8.942-5.307.362-1.327 2.175-8.563 4.35-11.095 1.57-1.81 7.975-1.086 11.6-.121.363.12.847-.12 1.088-.482.242-.362.121-.845-.241-1.086-2.538-1.93-2.055-4.221-1.571-5.427 6.767 6.03 12.688 5.548 12.93 5.548.12 0 14.259-.12 19.334.482 3.505.362 5.438 8.442 5.922 11.94v.241c-1.571 1.93-4.713 5.307-8.943 5.307-1.45-2.774-4.35-4.825-7.613-4.825zm-20.543 1.809c3.505 0 6.284 2.773 6.284 6.27 0 3.498-2.78 6.272-6.284 6.272s-6.284-2.774-6.284-6.271c0-3.498 2.78-6.271 6.284-6.271zM38.911 4.945c.604-.241 1.208-.362 1.933-.603C45.678 2.774 51.358 1.93 57.4 1.93c6.042 0 11.721.844 16.555 2.412.604.24 1.33.362 1.933.603 6.888 2.17 10.393 3.135 9.426 17.608-.12 1.93-.362 3.86-.483 5.668-1.088-3.618-3.021-7.84-6.284-8.2-5.196-.604-18.972-.483-19.697-.483 0 0-6.042.361-12.447-5.79-.242-.24-.483-.24-.725-.24a.665.665 0 0 0-.604.361c-.967 1.327-2.054 3.98-.604 6.634-3.384-.604-8.7-1.086-10.755 1.206-1.45 1.567-2.659 4.703-3.505 7.356-.241-2.17-.483-4.462-.604-6.633C28.64 8.08 32.023 7.116 38.911 4.945zm-7.009 48.603c-.12-.241-.242-.483-.483-.603-.121 0-.242-.12-.363-.12-.12 0-.241 0-.362.12-.242.12-.363.12-.604.12-1.692 0-3.626-3.738-3.626-9.045 0-4.583 1.33-7.84 2.78-8.683 1.691 2.17 5.075 5.547 9.788 5.789-.121.482-.121.964-.121 1.447 0 4.462 3.625 8.08 8.096 8.08 4.23 0 7.734-3.377 8.097-7.598 2.054-1.206 3.746-.482 4.47 0 .243 4.221 3.747 7.598 8.097 7.598 4.471 0 8.097-3.618 8.097-8.08 0-.483 0-.965-.121-1.447 4.592-.242 7.975-3.618 9.788-5.79 1.45.966 2.78 4.222 2.78 8.684 0 5.307-1.934 9.045-3.626 9.045-.242 0-.362 0-.604-.12a.772.772 0 0 0-.725 0c-.242.12-.363.362-.484.603C78.668 66.814 68.638 75.377 57.4 75.377c-11.36.12-21.268-8.563-25.498-21.83zM42.536 72.24c4.35 3.256 9.426 5.066 14.864 5.066 5.196 0 10.271-1.689 14.5-4.825-2.9 10.252 1.21 16.885 1.33 17.126 0 .12.12.12.12.12-2.779 5.428-4.712 7.599-7.129 10.373-.12.12-.242.24-.242.361l-2.054-8.924 3.142-5.307c.12-.241.12-.603 0-.965-.12-.24-.483-.482-.846-.482H48.457c-.362 0-.604.12-.845.482-.121.242-.121.603 0 .965l3.262 5.427-2.417 9.89a73.076 73.076 0 0 1-7.613-11.699l.121-.12c.363-.483 4.35-7.237 1.571-17.488zm14.743 36.905c-.967-.483-3.867-2.171-7.371-6.151.12-.12.241-.241.241-.482l2.538-10.252h9.546l2.417 9.89c-3.625 3.98-6.404 6.271-7.371 6.995zm5.075-18.694h-10.03l-2.296-3.859H64.53l-2.175 3.86zM6.163 104.804c3.263-10.372 12.81-16.16 25.014-15.317 2.659.121 5.317.362 7.855.483 8.942 17.608 17.643 20.985 18.005 21.105h.725c.121 0 .121 0 .121-.12.12-.12 3.625-2.533 8.338-8.08.484-.604.967-1.086 1.45-1.69C70.21 98.292 72.263 96 75.284 89.97c2.78-.12 5.438-.241 8.218-.483 12.205-.964 21.751 4.945 25.014 15.317l1.812 5.789c0 .12.121.241.242.362v7.236H2.054c1.33-4.462 2.659-8.925 4.109-13.387zm112.624 13.387h-6.404v-7.357c2.175-.844 4.35-1.809 6.404-2.894v10.251zm1.813-11.216c2.296-1.327 4.35-2.895 6.404-4.462v15.799H120.6v-11.337zm8.217-6.15c2.417-2.172 4.592-4.704 6.405-7.237v24.724h-6.405v-17.488zm14.622 17.366h-6.405V90.693a38.54 38.54 0 0 0 3.263-6.753h3.142v34.251z"/>
    </g>
</svg>
