<svg xmlns="http://www.w3.org/2000/svg" width="113" height="150" viewBox="0 0 113 150">
    <g fill="none" fill-rule="evenodd">
        <path fill="#3A3D65" fill-rule="nonzero" d="M59.968 127.05a3.194 3.194 0 0 1 1.137 2.445c0 .515.38.901.884.901.506 0 .885-.386.885-.9 0-1.546-.632-2.833-1.769-3.862a5.89 5.89 0 0 0-3.284-1.416V121.9c0-.515-.379-.901-.884-.901s-.884.386-.884.901v2.317a5.89 5.89 0 0 0-3.285 1.416c-1.136 1.03-1.768 2.445-1.768 3.861 0 1.545.632 2.832 1.768 3.861a5.89 5.89 0 0 0 3.285 1.416v7.08c-.758-.13-1.516-.515-2.021-.902a3.194 3.194 0 0 1-1.137-2.445c0-.515-.38-.901-.884-.901-.506 0-.885.386-.885.9 0 1.546.632 2.833 1.769 3.862a5.89 5.89 0 0 0 3.284 1.416v2.317c0 .515.379.901.884.901s.884-.386.884-.901v-2.317a5.89 5.89 0 0 0 3.285-1.416c1.136-1.03 1.768-2.445 1.768-3.861 0-1.545-.632-2.832-1.768-3.861a5.89 5.89 0 0 0-3.285-1.416v-7.08c.632 0 1.39.387 2.021.902zm-5.888 4.893a3.392 3.392 0 0 1-1.08-2.509c0-.925.36-1.85 1.08-2.51.6-.528 1.2-.792 1.92-.924v7c-.72-.132-1.32-.528-1.92-1.057zm5.84 4.114c.72.66 1.08 1.585 1.08 2.509 0 .925-.36 1.85-1.08 2.51-.6.528-1.2.792-1.92.924v-7c.6.132 1.32.528 1.92 1.057z"/>
        <path fill="#3A3D65" fill-rule="nonzero" d="M57 117.785c-8.824 0-16 7.225-16 16.108C41 142.775 48.176 150 57 150s16-7.225 16-16.107c0-8.883-7.176-16.108-16-16.108zm0 30.438c-7.882 0-14.235-6.395-14.235-14.33 0-7.936 6.353-14.331 14.235-14.331s14.235 6.395 14.235 14.33c0 7.936-6.353 14.331-14.235 14.331z"/>
        <path fill="#3A3D65" d="M74.424 33.879c.117.233.35.35.702.35.35 0 .468-.117.701-.35l4.33-5.356c.35-.349.233-.93-.118-1.164-.35-.349-.936-.233-1.17.117l-2.808 3.376c.936-16.3 14.507-29.222 31.12-29.222.468 0 .819-.35.819-.815a.798.798 0 0 0-.819-.815C89.632 0 75.126 13.854 74.307 31.085l-2.808-3.493c-.351-.35-.82-.466-1.17-.116-.351.349-.468.815-.117 1.164l4.212 5.239zM4.816 1.74c16.562 0 30.091 12.88 31.025 29.123l-2.8-3.364c-.35-.349-.816-.465-1.166-.116-.35.348-.467.812-.117 1.16l4.316 5.337c.116.232.35.348.7.348.233 0 .466-.116.7-.348l4.315-5.337c.35-.348.233-.928-.117-1.16-.35-.349-.933-.233-1.166.116l-2.8 3.48C36.657 13.807 22.312 0 4.817 0A.795.795 0 0 0 4 .812c0 .464.35.928.816.928z"/>
        <path fill="#3A3D65" fill-rule="nonzero" d="M91.388 32.286a201.766 201.766 0 0 1 4.494-8.724c.236-.471.118-.943-.355-1.179-.473-.235-.946-.117-1.183.354a303.94 303.94 0 0 0-4.612 8.842c-1.183 2.594-2.365 5.423-3.548 8.252H27.052c-1.182-2.83-2.483-5.658-3.784-8.37-1.42-2.947-2.957-6.012-4.612-8.842-.237-.471-.71-.59-1.183-.353-.473.235-.591.707-.355 1.178a201.766 201.766 0 0 1 4.494 8.724c1.301 2.83 2.72 5.777 3.903 8.724 2.365 5.541 4.376 11.318 6.386 17.448 1.656 5.423 3.312 11.2 4.849 17.566 1.3 5.187 2.484 10.846 3.784 17.566.947 4.715 1.893 9.313 2.72 14.029l.71 3.537c.118.353.473.707.828.707h23.416c.473 0 .828-.354.828-.707l.71-3.537c.946-4.716 1.773-9.314 2.72-14.03 1.3-6.719 2.601-12.26 3.784-17.565 1.537-6.366 3.075-12.025 4.849-17.566a177.975 177.975 0 0 1 6.386-17.448c1.3-2.829 2.602-5.776 3.903-8.606zm-23.298 74.98l-.591 2.828h-21.88l-.59-2.829c-.828-4.362-1.656-8.606-2.484-12.968h28.028c-.827 4.362-1.655 8.724-2.483 12.968zm2.838-14.737H42.19c-1.183-6.013-2.365-11.082-3.43-15.798h35.598c-1.065 4.716-2.129 9.785-3.43 15.798zm3.903-17.566H38.406c-1.42-5.659-2.839-10.846-4.376-15.798h45.177c-1.538 4.952-2.957 10.14-4.376 15.798zm4.849-17.566H33.439A245.851 245.851 0 0 0 27.762 41.6h57.594a245.851 245.851 0 0 0-5.676 15.797z"/>
        <path stroke="#3A3D65" stroke-linecap="round" stroke-linejoin="round" stroke-width="1.5" d="M16 47v10M11 52h10M97 47v10M92 52h10M25 92v6M22 95h6M88 92v6M85 95h6M9 68v16M1 76h16M104 68v16M96 76h16"/>
        <path fill="#3A3D65" d="M55.201 34.877c.114.239.342.358.685.358.228 0 .456-.12.685-.358l4.222-5.481c.343-.358.229-.953-.114-1.192-.342-.357-.913-.238-1.141.12l-2.74 3.574V6.874c0-.476-.341-.834-.798-.834s-.799.358-.799.834v25.024l-2.739-3.574c-.342-.358-.799-.477-1.141-.12-.343.358-.457.834-.114 1.192l3.994 5.481z"/>
    </g>
</svg>
