<svg xmlns="http://www.w3.org/2000/svg" width="126" height="150" viewBox="0 0 126 150">
    <g fill="#3A3D65" fill-rule="nonzero">
        <path d="M92.778 33.852c-1.215-1.069-1.89-2.404-1.89-3.874a.918.918 0 0 0-.944-.935c-.54 0-.944.401-.944.935 0 2.004.944 3.874 2.563 5.343 1.35 1.202 3.104 1.87 4.993 2.004v3.74c0 .534.404.935.944.935.54 0 .944-.4.944-.935v-3.74c1.89-.134 3.643-.935 4.993-2.004 1.619-1.469 2.563-3.34 2.563-5.343s-.944-3.873-2.563-5.343c-1.35-1.202-3.104-1.87-4.993-2.003V11.679a6.815 6.815 0 0 1 3.778 1.603c1.215 1.068 1.89 2.404 1.89 3.873 0 .535.404.935.944.935.54 0 .944-.4.944-.935 0-2.003-.944-3.873-2.563-5.343-1.35-1.202-3.104-1.87-4.993-2.003V5.935A.918.918 0 0 0 97.5 5c-.54 0-.944.4-.944.935v3.74c-1.89.134-3.643.935-4.993 2.004C89.944 13.148 89 15.019 89 17.022s.944 3.873 2.563 5.343c1.35 1.202 3.104 1.87 4.993 2.003v11.087a6.815 6.815 0 0 1-3.778-1.603zm9.444-7.614c1.215 1.069 1.89 2.405 1.89 3.874 0 1.47-.675 2.805-1.89 3.874-1.08.935-2.293 1.469-3.778 1.602V24.77c1.485 0 2.834.534 3.778 1.47zm-9.444-5.343c-1.215-1.068-1.89-2.404-1.89-3.873 0-1.47.675-2.805 1.89-3.874 1.08-.935 2.293-1.47 3.778-1.603v10.82c-1.35 0-2.699-.535-3.778-1.47z"/>
        <path d="M126 139.11V47.734 47.6c-.132-3.297-4.354-6.066-11.611-7.912 4.09-4.22 6.597-9.889 6.597-16.218C120.986 10.549 110.431 0 97.5 0 84.57 0 74.014 10.549 74.014 23.47c0 6.33 2.507 12 6.597 16.22-7.257 1.845-11.48 4.614-11.611 7.91V138.98C69 145.439 83.646 149 97.5 149s28.5-3.428 28.5-9.89zm-1.98-60.654v2.241c-16.888 7.12-36.284 7.12-53.173 0V67.38c8.445 3.428 17.549 5.274 26.653 5.274s18.076-1.714 26.653-5.274v11.076h-.132zM97.369 87.95c9.104 0 18.076-1.715 26.653-5.275V95.993c-16.89 7.12-36.285 7.12-53.174 0V82.675c8.445 3.56 17.549 5.275 26.521 5.275zm-26.52 21.229V98.103c8.444 3.428 17.548 5.274 26.652 5.274 9.104 0 18.076-1.714 26.653-5.274v13.317c-16.89 7.12-36.285 7.12-53.174 0v-2.241h-.132zm53.173-46.15v2.24c-16.89 7.121-36.285 7.121-53.174 0V51.558c4.486 4.087 15.834 6.197 26.653 6.197 10.82 0 22.167-2.11 26.653-6.197v11.471h-.132zM70.847 113.53c8.445 3.428 17.549 5.274 26.653 5.274s18.076-1.714 26.653-5.274v13.318c-16.89 7.12-36.285 7.12-53.174 0V113.53h-.132zM97.368 1.978c11.875 0 21.507 9.626 21.507 21.493 0 11.867-9.632 21.493-21.507 21.493-11.875 0-21.507-9.626-21.507-21.493 0-11.867 9.632-21.493 21.507-21.493zM82.194 41.272a22.957 22.957 0 0 0 15.174 5.67c5.806 0 11.083-2.11 15.306-5.67 6.86 1.582 11.347 4.087 11.347 6.46 0 3.825-10.952 8.044-26.653 8.044-15.701 0-26.653-4.22-26.653-8.043.132-2.374 4.486-4.879 11.48-6.461zm15.174 105.882c-15.701 0-26.653-4.22-26.653-8.043v-10.153c8.445 3.428 17.549 5.274 26.653 5.274s18.076-1.714 26.653-5.274v10.153c0 3.824-10.952 8.043-26.653 8.043zM28.5 69C14.778 69 .264 72.452 0 78.826v61.082C0 146.415 14.646 150 28.5 150S57 146.548 57 139.908V78.96C56.736 72.452 42.222 69 28.5 69zm26.52 40.898v2.258c-16.888 7.17-36.284 7.17-53.173 0V98.744c8.445 3.453 17.549 5.312 26.653 5.312s18.076-1.726 26.653-5.312v11.154h-.132zM1.848 114.28c8.445 3.453 17.549 5.312 26.653 5.312s18.076-1.726 26.653-5.312v13.412c-16.89 7.17-36.285 7.17-53.174 0V114.28h-.132zm53.174-19.918v2.258c-16.89 7.17-36.285 7.17-53.174 0V82.942c4.486 4.117 15.834 6.242 26.653 6.242 10.82 0 22.167-2.258 26.52-6.241v11.42zM28.5 70.992c15.701 0 26.653 4.249 26.653 8.1 0 3.85-10.952 8.1-26.653 8.1-15.701 0-26.653-4.25-26.653-8.1 0-3.851 10.952-8.1 26.653-8.1zm0 77.149c-15.701 0-26.653-4.25-26.653-8.1v-10.225c8.445 3.453 17.549 5.312 26.653 5.312s18.076-1.726 26.653-5.312v10.225c-.132 3.85-10.952 8.1-26.653 8.1z"/>
    </g>
</svg>
