<svg xmlns="http://www.w3.org/2000/svg" width="184" height="100" viewBox="0 0 184 100">
    <g fill="#3A3D65" fill-rule="evenodd">
        <path fill-rule="nonzero" d="M183.855 36.419c-.29-.427-1.015-.569-1.45-.284-7.104 4.693-14.21 9.814-21.024 14.935-1.305.995-2.755 1.422-4.06 1.28-.58-.142-1.45-.427-2.03-1.138L131.224 16.79c-.58-.853-.58-1.707-.435-2.276.29-1.28 1.305-2.56 2.61-3.271 5.075-2.987 10.15-6.259 15.08-9.388.434-.285.58-.996.29-1.423-.29-.426-1.016-.568-1.45-.284-4.93 3.13-10.005 6.4-15.08 9.388-1.74.995-3.045 2.56-3.48 4.267H55.103c-.435-1.707-1.74-3.272-3.48-4.267-5.075-2.987-10.15-6.116-15.08-9.388-.434-.284-1.16-.142-1.45.284-.29.427-.144 1.138.29 1.423 4.93 3.271 10.005 6.4 15.08 9.388 1.305.853 2.32 1.991 2.61 3.271v.285c0 .142 0 .426.145.569 0 .426-.145.995-.435 1.422L28.714 51.212c-.58.853-1.45 1.138-2.03 1.138-1.305.142-2.9-.285-4.06-1.28-6.96-5.263-14.064-10.242-21.023-14.935-.435-.285-1.16-.143-1.45.284-.29.427-.145 1.138.29 1.422 6.96 4.694 14.064 9.673 20.879 14.936 1.45 1.137 3.19 1.706 4.784 1.706.29 0 .58 0 1.015-.142 1.45-.284 2.61-.995 3.335-1.991l2.465-3.414c1.45 1.138 4.495 3.698 5.8 6.4.435.712.58 1.281.87 1.85.145.427.29.711.58 1.138-.58.427-1.16.996-1.74 1.565l-1.74 2.418c-2.175 2.987-1.595 7.112 1.45 9.387l2.754 1.992c1.16.853 2.61 1.28 4.06 1.28.29 0 .725 0 1.015-.142.29 0 .58-.143.87-.285-.29 2.418.58 4.979 2.755 6.543l2.465 1.85c1.16.853 2.61 1.28 4.205 1.28.29 0 .725 0 1.014-.143.58-.142 1.015-.284 1.595-.427v1.565c.29 1.85 1.305 3.414 2.755 4.552l2.465 1.849c1.16.853 2.61 1.28 4.205 1.28.29 0 .725 0 1.015-.142.725-.142 1.305-.285 1.885-.57 0 1.992.87 3.841 2.465 5.121l2.174 1.565c1.015.854 2.32 1.138 3.625 1.138h.87a6.676 6.676 0 0 0 4.06-2.418l1.305-1.707c.145.142.145.427.435.569 1.595.996 3.335 1.565 5.074 1.565 2.9 0 5.655-1.28 7.395-3.84 1.595-2.277 1.885-4.98 1.16-7.397l4.495 3.129a8.907 8.907 0 0 0 5.074 1.565c.58 0 1.16 0 1.595-.143 2.32-.426 4.35-1.706 5.655-3.698 1.305-1.991 1.885-4.267 1.45-6.543 0-.284-.145-.427-.145-.711l2.61 1.707a8.907 8.907 0 0 0 5.074 1.564c.58 0 1.16 0 1.595-.142 2.32-.426 4.35-1.707 5.655-3.698 1.305-1.991 1.885-4.267 1.45-6.543 0-.284-.145-.427-.145-.711l3.335 2.133a8.907 8.907 0 0 0 5.074 1.565c.58 0 1.16 0 1.595-.142 2.32-.427 4.35-1.707 5.655-3.698 1.305-1.992 1.885-4.268 1.45-6.543-.435-2.276-1.74-4.268-3.77-5.548L115.71 39.406c-.29-.142-.58-.142-.87-.142h-5.51c-11.599 0-13.049-9.246-13.194-9.672 0-.57-.58-.854-1.015-.854H76.561c-.58 0-1.015.427-1.015.854-1.015 5.405-2.9 9.103-5.944 10.952-2.32 1.422-4.64 1.28-5.8 1.138V25.467l17.69-9.673H128.612c.145.712.29 1.565.725 2.134l24.069 34.422c.725 1.138 2.03 1.849 3.335 1.991.29 0 .58.142 1.015.142 1.594 0 3.334-.569 4.784-1.706 6.815-5.121 13.92-10.242 20.879-14.936.58-.284.725-.995.435-1.422zM45.533 72.832c-1.16.143-2.465-.142-3.48-.853L39.3 69.988c-2.03-1.565-2.465-4.41-1.015-6.401l1.74-2.418c.434-.57 1.16-1.138 1.74-1.423h.144c.29-.142.725-.284 1.16-.284h.725c1.015 0 1.885.284 2.755.853l2.755 1.992c1.015.71 1.595 1.849 1.885 2.987.145.853 0 1.706-.29 2.418l-2.9 3.84s0 .142-.145.142c-.58.57-1.45.996-2.32 1.138zm11.31 9.246c-1.305.142-2.61-.142-3.625-.854l-2.465-1.849c-2.03-1.422-2.465-4.267-1.16-6.4.29-.285.58-.57.725-.854l1.74-2.418c.29-.427.58-.711.725-1.138l2.03-2.702c1.015-1.28 2.464-1.992 3.914-1.992 1.015 0 2.03.285 2.9.996l2.465 1.849c2.175 1.565 2.61 4.552 1.015 6.685l-5.075 6.828a4.595 4.595 0 0 1-3.19 1.849zm12.034 8.819c-1.305.142-2.61-.143-3.625-.854l-2.465-1.849c-1.015-.711-1.74-1.849-1.885-3.13-.145-1.28.145-2.56.87-3.555l8.12-10.668a4.595 4.595 0 0 1 3.19-1.85h.725c1.014 0 2.03.285 2.9.997l2.464 1.849c2.175 1.564 2.61 4.551 1.015 6.685l-8.12 10.668c-.87.853-1.884 1.422-3.19 1.707zm13.919 5.547c-.58.853-1.595 1.422-2.755 1.565-1.015.142-2.175-.143-3.045-.712l-2.175-1.564c-1.884-1.28-2.174-3.84-.87-5.69l2.465-3.271c.58-.854 1.595-1.423 2.755-1.565h.58c.87 0 1.74.285 2.465.854l2.175 1.564c1.885 1.28 2.175 3.84.87 5.69l-2.465 3.129zm-20.589-72.4c-.29.142-.58.57-.58.854v17.495c0 .427.29.854.725.996.145 0 1.16.426 2.755.426 1.45 0 3.48-.284 5.51-1.422 3.335-1.991 5.654-5.832 6.814-11.521h16.674c.725 2.702 3.77 10.525 15.08 10.525h5.654l31.318 21.052c1.45.995 2.465 2.56 2.755 4.267.29 1.707 0 3.556-1.015 4.978a6.732 6.732 0 0 1-4.35 2.703c-1.74.284-3.624 0-5.074-.996l-7.975-5.263-22.474-15.22c-.434-.284-1.16-.141-1.45.285-.29.427-.144 1.138.29 1.423l22.474 15.077c1.45.996 2.465 2.56 2.755 4.267.29 1.707 0 3.556-1.015 4.979-2.175 2.987-6.38 3.84-9.424 1.706L99.18 65.578c-.435-.284-1.015-.142-1.45.142-.145.143-.29.143-.29.285-.29.427-.145 1.138.29 1.422l15.37 9.957c1.45.996 2.464 2.56 2.754 4.267.29 1.707 0 3.556-1.015 4.979a6.732 6.732 0 0 1-4.35 2.702c-1.74.285-3.624 0-5.074-.996l-14.5-10.099c-.434-.284-1.16-.284-1.45.285-.29.427-.29 1.138.29 1.422l4.785 3.414c.145.142.145.427.435.427 3.045 2.133 3.915 6.258 1.74 9.245-2.175 2.987-6.38 3.84-9.424 1.707-.145-.142-.29-.142-.58-.142l.145-.285a6.043 6.043 0 0 0-1.305-8.534l-2.175-1.565c-1.305-.995-2.9-1.28-4.35-1.137l2.755-3.556c2.32-2.987 1.595-7.397-1.45-9.53l-2.465-1.85c-3.045-2.275-7.394-1.564-9.714 1.423-.29-1.707-1.16-3.272-2.755-4.41l-2.465-1.849c-3.045-2.133-7.25-1.564-9.57 1.28-.29-1.564-1.16-2.987-2.61-3.982l-2.754-1.992c-1.45-.995-3.19-1.564-5.075-1.28-.29 0-.58.142-.87.142-.145-.426-.435-.853-.58-1.137-.29-.57-.58-1.138-.87-1.992-1.594-3.13-5.074-5.974-6.524-7.254l20.444-29.16c.435-.71.725-1.421.725-2.133H77.14l-14.934 8.25z"/>
        <path fill-rule="nonzero" d="M159.5 40.594c2.39 0 4.5-1.95 4.5-4.455 0-2.367-1.969-4.456-4.5-4.456-2.39 0-4.5 1.95-4.5 4.456 0 2.506 2.11 4.455 4.5 4.455zm0-6.822c1.266 0 2.39 1.114 2.39 2.367s-1.124 2.367-2.39 2.367-2.39-1.114-2.39-2.367 1.124-2.367 2.39-2.367zM20 36.139c0 2.367 1.969 4.455 4.5 4.455 2.39 0 4.5-1.95 4.5-4.455 0-2.367-1.969-4.456-4.5-4.456-2.531.14-4.5 2.089-4.5 4.456zm6.89 0c0 1.253-1.124 2.367-2.39 2.367s-2.39-1.114-2.39-2.367 1.124-2.367 2.39-2.367 2.39 1.114 2.39 2.367z"/>
        <path d="M139.401 15.089c-.396.272-.528.953-.264 1.361l5.143 7.894c.132.272.528.408.792.408.131 0 .395 0 .527-.136.396-.272.528-.952.264-1.36l-5.143-7.895c-.264-.544-.923-.68-1.319-.272zM40.72 24.34l5.143-7.971c.264-.412.132-1.1-.264-1.375-.396-.274-1.055-.137-1.319.275l-5.143 7.972c-.264.412-.132 1.1.264 1.374.132.137.396.137.527.137.264 0 .66-.137.792-.412z"/>
    </g>
</svg>
