<?xml version="1.0" encoding="utf-8"?>
<!-- Generator: Adobe Illustrator 23.0.4, SVG Export Plug-In . SVG Version: 6.00 Build 0)  -->
<svg version="1.1" id="Шар_1" xmlns="http://www.w3.org/2000/svg" xmlns:xlink="http://www.w3.org/1999/xlink" x="0px" y="0px"
	 viewBox="0 0 141.3 89.9" style="enable-background:new 0 0 141.3 89.9;" xml:space="preserve">
<style type="text/css">
	.st0{fill:url(#SVGID_1_);}
	.st1{fill:url(#SVGID_2_);}
	.st2{fill:url(#SVGID_3_);}
</style>
<title>logo</title>
<g>
	
		<linearGradient id="SVGID_1_" gradientUnits="userSpaceOnUse" x1="-5.33" y1="-145.7131" x2="123.43" y2="-145.7131" gradientTransform="matrix(1 0 0 -1 0 -101.28)">
		<stop  offset="0" style="stop-color:#D1E4A5"/>
		<stop  offset="0.5" style="stop-color:#ACD479"/>
		<stop  offset="1" style="stop-color:#76B83F"/>
	</linearGradient>
	<path class="st0" d="M121.2,24.1c0,0-21.7-14-43.3-4S21.7,49.8,0,36.1c0,0,29.7,50.2,91.1,32.5l16-16l16-10.8l5.6-14.5L121.2,24.1z
		"/>
	
		<linearGradient id="SVGID_2_" gradientUnits="userSpaceOnUse" x1="99.13" y1="-113.3199" x2="123.2" y2="-113.3199" gradientTransform="matrix(1 0 0 -1 0 -101.28)">
		<stop  offset="0" style="stop-color:#64C08A"/>
		<stop  offset="0.5" style="stop-color:#00A550"/>
		<stop  offset="1" style="stop-color:#00914C"/>
	</linearGradient>
	<path class="st1" d="M123.2,12c0,6.6-5.4,12-12,12s-12-5.4-12-12s5.4-12,12-12S123.2,5.4,123.2,12z"/>
	
		<linearGradient id="SVGID_3_" gradientUnits="userSpaceOnUse" x1="45" y1="-146.225" x2="141.26" y2="-146.225" gradientTransform="matrix(1 0 0 -1 0 -101.28)">
		<stop  offset="0" style="stop-color:#64C08A"/>
		<stop  offset="0.5" style="stop-color:#00A550"/>
		<stop  offset="1" style="stop-color:#00914C"/>
	</linearGradient>
	<path class="st2" d="M141.3,0c0,0-6.8,18.1-20.1,24.1c1,5.8-0.8,11.7-4.8,16.1c0,0-18.1-24.1-51,6.4c0,0,27.3-11.2,26.5,4
		C91.1,65.8,62.2,87.5,45,89.9C45,89.9,128.8,89.9,141.3,0z"/>
</g>
</svg>
