<!-- Generated by IcoMoon.io -->
<svg version="1.1" xmlns="http://www.w3.org/2000/svg" width="512" height="512" viewBox="0 0 512 512">
<title></title>
<g id="icomoon-ignore">
</g>
<path fill="#000" d="M472.173 141.991c0.471-23.477-4.687-47.215-8.875-70.59-1.442-8.046-4.362-15.821-7.24-23.45-2.168-5.743-8.567-9.401-14.461-8.144-3.815 0.813-7.245 1.604-10.571 2.699-34.818 11.455-67.057 28.207-98.028 47.67-4.161 2.612-10.214 3.555-15.237 3.186-12.017-0.879-23.905-3.869-35.918-4.438-29.73-1.409-59.4-0.504-88.861 4.649-4.095 0.716-9.488 0.010-12.89-2.189-33.773-21.853-68.91-40.557-108.436-51.058-5.933-1.577-12.040-0.742-13.541 1.615-0.916 1.441-1.745 2.937-2.2 4.54-4.27 15.003-9.331 29.931-11.813 45.254-2.958 18.287-5.803 37.127-4.399 55.392 0.883 11.481-2.287 18.536-8.56 26.593-21.046 27.037-30.523 58.117-31.102 92.193-0.498 29.144 3.359 57.548 12.235 85.409 13.595 42.69 39.846 74.728 79.373 95.573 32.499 17.137 67.913 23.743 104.151 25.017 32.662 1.144 65.388 0.173 98.088 0.358 32.776 0.184 65.101-2.736 96.457-12.956 31.383-10.225 58.54-26.724 79.612-52.666 30.435-37.473 39.911-81.617 41.856-128.344 1.491-35.733-5.792-69.349-26.718-98.581-8.485-11.86-13.242-22.047-12.923-37.733zM409.072 415.795c-14.056 12.154-31.242 17.908-48.836 22.113-34.519 8.247-69.668 10.301-104.93 8.762-34.856 1.512-69.311-0.661-103.225-8.642-25.017-5.884-47.855-15.778-63.773-37.251-25.331-34.173-31.805-99.209 10.052-134.703 10.674-9.049 22.578-14.792 36.644-15.685 15.524-0.992 31.053-2.926 46.565-2.742 39.131 0.465 78.245 2.411 117.371 2.704 17.87 0.13 35.865-4.037 53.603-2.964 16.12 0.976 33.068 3.944 47.698 10.431 24.387 10.815 37.515 32.743 41.482 58.426 5.906 38.188-1.887 72.947-32.651 99.555z"></path>
<path fill="#000" d="M382.603 341.347c0 27.527-16.697 49.843-37.295 49.843s-37.294-22.315-37.294-49.843c0-27.527 16.697-49.843 37.294-49.843s37.294 22.315 37.294 49.843z"></path>
<path fill="#000" d="M204.655 341.347c0 27.527-16.7 49.843-37.299 49.843s-37.299-22.315-37.299-49.843c0-27.527 16.7-49.843 37.299-49.843s37.299 22.315 37.299 49.843z"></path>
</svg>
