<?xml version="1.0" encoding="utf-8"?>
<!-- Generator: Adobe Illustrator 23.0.4, SVG Export Plug-In . SVG Version: 6.00 Build 0)  -->
<svg version="1.1" id="Шар_1" xmlns="http://www.w3.org/2000/svg" xmlns:xlink="http://www.w3.org/1999/xlink" x="0px" y="0px"
	 viewBox="0 0 20 19" style="enable-background:new 0 0 20 19;" xml:space="preserve">
<style type="text/css">
	.st0{fill:#4BC60E;}
</style>
<g>
	<path class="st0" d="M17.4,8.7c0-0.5,0.4-0.8,0.8-0.8S19,8.2,19,8.7v0.8c0,5.2-4.3,9.5-9.5,9.5S0,14.7,0,9.5S4.3,0,9.5,0
		c1.3,0,2.6,0.2,3.9,0.8C13.9,1.1,14,1.5,13.8,2c-0.1,0.4-0.6,0.6-1,0.4c-3.9-1.8-8.6,0-10.3,3.9s0,8.6,3.9,10.2
		c3.9,1.7,8.6,0,10.2-3.9c0.5-1,0.7-2,0.7-3.2C17.4,9.4,17.4,8.7,17.4,8.7z"/>
	<path class="st0" d="M9.6,10l8.9-8.9c0.4-0.4,0.8-0.4,1.2,0s0.4,0.8,0,1.2l-9.5,9.5c-0.4,0.4-0.8,0.4-1.2,0L6.4,9.3
		c-0.4-0.4-0.4-1,0-1.2c0.4-0.4,0.8-0.4,1.2,0L9.6,10z"/>
</g>
</svg>
