<svg xmlns="http://www.w3.org/2000/svg" width="20" height="18" viewBox="0 0 20 18">
    <g fill="none" fill-rule="evenodd">
        <path d="M-2-3h24v24H-2z"/>
        <path fill="#997B57" fill-rule="nonzero" d="M10 2.392L7.794 6.57a.65.65 0 0 1-.488.341l-4.84.657 3.472 3.163a.65.65 0 0 1 .201.597l-.829 4.52 4.403-2.165a.65.65 0 0 1 .574 0l4.403 2.164-.83-4.519a.65.65 0 0 1 .202-.597l3.471-3.163-4.84-.657a.65.65 0 0 1-.487-.34L10 2.391zM6.8 5.668L9.425.696a.65.65 0 0 1 1.15 0L13.2 5.668l5.887.8a.65.65 0 0 1 .35 1.124l-4.233 3.857.998 5.434a.65.65 0 0 1-.926.7L10 14.991l-5.276 2.592a.65.65 0 0 1-.926-.7l.998-5.434L.562 7.592a.65.65 0 0 1 .35-1.125l5.888-.8z"/>
    </g>
</svg>
